<svg xmlns="http://www.w3.org/2000/svg" version="1.2" viewBox="0 0 450 450" width="450" height="450">
<style>.a{opacity:.99;fill:#BB86FC}</style>
<path fill-rule="evenodd" class="a" d="m98 35.1c1.9-0.1 5.3 0.4 7.5 1 2.2 0.7 5.6 2.2 7.5 3.5 1.9 1.2 4.5 4 5.6 6.1 1.2 2.1 2.5 5.6 2.9 7.8 0.3 2.2 0.2 5.8-0.4 8-0.5 2.2-3.5 7.8-6.6 12.5-5.3 8-5.6 8.8-5 19.4l-5 1.3c-2.8 0.7-5.5 1.3-6 1.3-0.5 0-1.6-1.1-2.3-2.5-0.6-1.4-1.2-4.5-1.2-7 0-2.5 0.5-5.5 1.1-6.8 0.7-1.2 3.2-5.4 5.7-9.2 2.9-4.4 4.7-8.5 5-11 0.4-3.2-0.1-4.6-2.2-7.3-2.3-2.8-3.2-3.2-7.6-3.2-4.1 0-5.6 0.5-8.5 3-1.9 1.6-3.5 3.6-3.5 4.3 0 0.6-0.4 1.8-0.8 2.4-0.5 1-2 1-6.7 0.2-3.3-0.7-6.4-1.5-6.8-1.8-0.5-0.3 0.2-3 1.5-6 1.4-3.3 3.9-6.8 6.3-8.8 2.2-1.9 6.7-4.2 10-5.3 3.3-1 7.6-1.9 9.5-1.9zm295.1 165.9c1.1 0.6 2 1.5 2 2-0.1 0.6 0.5 1 1.1 1 0.7 0 2.3-0.9 3.5-2 1.3-1.1 2.5-1.7 2.8-1.2 0.2 0.4-0.4 1.6-1.6 2.7-1.1 1.1-2 2.2-2 2.5 0 0.3 1 1.6 2.1 3 1.1 1.4 1.8 2.7 1.5 3-0.3 0.3-1.6-0.6-5.5-4.5l-2.5 2.5c-1.4 1.4-2.8 2.2-3.2 1.7-0.5-0.4 0.3-1.8 4.2-5.7l-2.2-2.2c-1.3-1.3-2.2-2.7-2.2-3.1 0-0.4 0.9-0.3 2 0.3zm-331.4 37c3.4 0 4.9 0.6 7 2.8 1.6 1.5 3.1 3.9 3.4 5.3 0.3 1.3 0.1 4-0.5 5.9-0.7 2.1-2.5 4.3-4.6 5.7-1.9 1.3-4.4 2.3-5.5 2.3-1.1 0-3.5-0.9-5.3-2-1.7-1.1-3.9-3.6-4.7-5.5-1.1-2.7-1.3-4.3-0.5-7 0.5-1.9 2.2-4.4 3.7-5.5 1.7-1.3 4.2-2 7-2zm-6.8 8.2c-1.1 2.2-1.2 3.2-0.2 5.2 0.7 1.4 2.5 3.2 3.9 3.9 1.8 0.9 3.3 0.9 5.2 0.2 1.5-0.6 3.3-2.4 4-4 1.1-2.3 1.1-3.6 0.3-5.5-0.6-1.4-2.2-3.1-3.6-3.7-1.4-0.7-2.8-1.3-3.3-1.3-0.4 0-1.7 0.6-2.8 1.3-1.2 0.7-2.8 2.4-3.5 3.9zm177.1-189.9c18.3 0.3 21.1 0.5 26.5 2.5 3.3 1.2 8.4 3.7 11.4 5.5 3 1.7 7.8 5.5 10.6 8.2 2.9 2.8 7.1 7.9 9.4 11.5 2.3 3.6 5.1 9.2 6.3 12.5 1.9 5.3 2.2 8.5 2.7 49l22.5 0.3c14.2 0.1 22.6 0.6 22.6 1.2 0 0.6 4.9 60.4 11 133 6 72.6 11 133.4 11 138h-271v-3.7c0-2.1 5-63.2 11-135.8 6.1-72.6 11-132.1 11-132.2 0-0.2 10.2-0.4 45.5-0.8l0.6-21.5c0.5-19.6 0.8-22.1 3-28 1.3-3.6 3.7-8.7 5.3-11.5 1.6-2.7 5.9-7.9 9.5-11.5 3.6-3.6 9.5-8 13.1-9.9 3.6-1.9 9-4.3 12-5.3 4.7-1.5 8.4-1.7 26-1.5zm-33 15.9c-1.9 1.2-5.7 4-8.4 6.2-2.7 2.3-6.6 6.8-8.8 10.1-2.1 3.3-4.8 8.9-5.9 12.5-1.5 5-2.1 11-2.7 25.8l-0.7 19.2h115.5c0.4-22.9 0.2-32.9-0.2-37-0.5-5.4-1.7-9.4-4.2-14.5-2-4.2-5.7-9.4-9.2-13-4.1-4.2-8.3-7.2-13.4-9.8-4.3-2.1-10.3-4.1-14-4.7-3.6-0.5-11.7-1-18-0.9-8.2 0-13.7 0.6-19 2-4.1 1.1-9.1 2.9-11 4.1zm-72.4 89.1c-0.3 2.3-4.9 56.2-10.1 119.7-5.2 63.5-9.7 117.9-10 120.8l-0.5 5.2h249c-0.8-6.6-5.3-60.5-10.5-124-5.2-63.5-9.7-117.9-10-120.7l-0.5-5.3h-206.9zm-17.1-58.2c2.4 0 4.3 0.7 6 2.5 1.4 1.3 2.6 3.5 2.7 4.7 0 1.2 0 2.9-0.1 3.8-0.1 0.8-1.3 2.5-2.6 3.7-1.6 1.4-3.7 2.3-6 2.3-2.4 0-4.2-0.8-6-2.5-1.7-1.8-2.4-3.6-2.4-6.1q0-3.5 2.4-6c1.7-1.7 3.6-2.4 6-2.4zm278.3 178.9c2 0 4.3 1 6 2.5 2.2 1.9 2.7 3.2 2.7 6.6 0 3.3-0.5 4.6-2.7 6.5-1.6 1.4-4 2.5-5.8 2.5-1.6 0-3.9-0.5-5-1-1.1-0.6-2.6-2.4-3.5-4-1.1-2.4-1.2-3.9-0.5-6.5 0.6-2 2.1-4.2 3.3-5.1 1.2-0.8 3.7-1.5 5.5-1.5zm-5.2 7.3c-0.4 1.2-0.5 3-0.2 4 0.4 1 1.7 2.3 3.1 3 2 1.1 2.8 1 5-0.5 1.8-1.2 2.5-2.7 2.5-4.7q0-3-2.2-4.6c-1.2-0.8-2.5-1.4-2.8-1.4-0.2 0-1.4 0.5-2.5 1-1.2 0.5-2.5 1.9-2.9 3.2zm-311.3 38.3c0.5 0.3 0.9 1.9 0.8 3.5 0 2.6 0.3 3 3.1 3.2 1.8 0.1 3.3 0.8 3.5 1.5 0.2 0.8-0.8 1.3-3.2 1.3-3.2 0-3.5 0.2-3.7 3.1-0.1 1.8-0.8 3.3-1.5 3.5-0.8 0.2-1.3-0.8-1.3-3.1 0-3.4-0.1-3.5-3.5-3.5-2.3 0-3.3-0.5-3.1-1.3 0.2-0.7 1.7-1.4 3.5-1.5 2.8-0.2 3.1-0.6 3-3.1-0.1-1.5 0.2-3.1 0.6-3.5 0.4-0.3 1.2-0.4 1.8-0.1zm103-113.5c2.7 0 4.6 0.7 6.8 2.7 1.6 1.5 3.4 4.1 3.8 5.8 0.4 1.6 0.4 4.4 0 6.2-0.5 1.8-2.2 4.4-3.9 5.8-2.1 1.7-4.2 2.5-7 2.5-3 0-4.8-0.8-7.5-3-2.1-1.9-3.7-4.3-4.1-6.3-0.4-2 0-4.5 1-6.7 0.9-2 2.9-4.3 4.4-5.3 1.5-0.9 4.4-1.7 6.5-1.7zm112.4-0.1c2.5 0 4.8 0.8 6.8 2.3 1.6 1.2 3.5 3.7 4.2 5.5 1 2.3 1.1 4.2 0.4 6.5-0.5 1.8-2.3 4.5-4 6-2.3 2-4.1 2.8-7.1 2.8-2.7 0-4.8-0.8-6.7-2.4-1.5-1.3-3.4-3.6-4.1-5.2-0.8-1.8-1.1-4.1-0.6-5.9 0.3-1.7 2.1-4.5 4-6.3 2.5-2.5 4.1-3.3 7.1-3.3zm-56.7 41.1c2.5 0 6.8 0.6 9.5 1.5 2.8 0.8 6.5 2.6 8.3 4 1.9 1.4 4.5 5.1 6.2 9 2.3 4.8 3 7.7 2.8 11.2-0.3 4.7-0.3 4.8-3.6 4.8-3.3 0-3.4-0.1-5-6.7-1-3.9-2.7-7.8-4.2-9.4-1.3-1.5-3.9-3.3-5.7-4.1-1.8-0.7-5.4-1.3-8-1.3-2.6 0-6.5 0.8-8.8 1.9-2.4 1.2-4.8 3.4-6.1 5.7-1.2 2.1-2.4 5.4-2.8 7.4-0.4 1.9-0.9 4.2-1.1 5.2-0.3 1.3-1.3 1.7-7 1.3l0.1-6c0-4.4 0.7-7.4 2.5-10.9 1.3-2.7 4-6.2 5.9-7.8 2-1.6 5.6-3.5 8-4.3 2.5-0.8 6.6-1.4 9-1.5z"/>
</svg>
