<svg version="1.2" xmlns="http://www.w3.org/2000/svg" viewBox="0 0 512 512" width="512" height="512"><style>.a{fill:#9f52e9;stroke:#9f52e9;stroke-width:.4}.b{fill:#111113;stroke:#111113;stroke-width:.4}.c{fill:#56e9f1;stroke:#56e9f1;stroke-width:.4}</style><path class="a" d="m248.4 2.5c8.9-3.2 17.6 1.6 25.9 4.3 50.9 17.1 101.1 35.8 151.4 54.6 20.2 7.8 40.4 15.8 60.6 23.9 4.8 1.8 9.8 5.3 10.3 10.8 0.4 7-1.4 13.9-2.1 20.9-6.8 52.3-13.5 104.6-20.5 156.9q-7.5 53.4-15.7 106.7c-0.5 3.2-1.8 6.3-4.5 8.3-5.2 3.9-11.1 6.7-16.6 10.2-33.3 20.7-66.7 41.4-99.8 62.4-22 14-43.9 28.1-65.8 42.1-5 3-10 7-16.1 6.9-5.3 0.2-9.8-3.1-14.1-5.8-41.3-25.9-81.8-53-123.4-78.4q-26.4-16.3-52.9-32.5c-5-2.9-11.2-6-12.2-12.3-4.2-25.7-7.8-51.5-11.4-77.3-7.6-54.1-14.8-108.2-22.4-162.2q-2.4-20.4-5.2-40.7c-0.9-4.6 0.4-10 4.6-12.6 6.8-4 14.5-6.1 21.7-9.2 48.9-19.8 98.7-37.4 148.1-55.9 20-7.2 39.9-14.7 60.1-21.1z"/><path class="b" d="m90.6 88.1c2.3-0.9 4.7 0.3 6.8 1.3 10.3 5.1 21.1 9.2 31.9 13 23.7 8.7 48.5 14 73.5 17.5 24.9 3.5 50.1 3.8 75.1 3.1 47-2.7 93.8-13.4 136.1-34.2 2.6-1.4 6.2-1.8 8.4 0.6 3.8 2.8 5.1 7.6 5.7 12.1 2.4 21.5 2.6 43.1 2 64.7-1.1 19-3.4 38-5.7 57-3.1 26-8.1 52.1-17 76.8-8.6 23.2-20.2 45.4-35.1 65.1-13.4 18.1-30 33.7-48.1 47-18.6 13.4-38.5 25.3-59.8 34-4.8 2.2-10.4 3.4-15.5 1-39.5-16.8-76.1-41.4-104.2-74-9.3-11-17.8-22.8-24.3-35.6-11.2-19.7-18.5-41.3-24.5-63.1-8.3-32-11.5-65-14-97.9-1.7-16.1-1.3-32.3-1.1-48.5 0.7-10.2 1.5-20.4 3.4-30.4 0.6-3.9 2.9-7.6 6.4-9.5z"/><path class="c" d="m127.2 185.5c32.5 8.4 65.7 13.2 98.8 18.1-2.1 3.1-4 6.3-6.2 9.3-10 14-27.1 23-44.4 22.6-13.1 0.3-26.2-5.5-35-15-8.8-9.5-12.8-22.3-13.2-35z"/><path class="c" d="m348.9 193.7c11.4-2.4 22.7-4.9 33.9-7.7 0.3 15.9-6.9 32.3-20.3 41.3-8.3 5.3-18.1 8.6-27.9 8.3-13.8 0.2-27.2-5.9-37-15.3-5.1-4.8-8.9-10.8-12.7-16.7 21.4-3.1 42.8-5.9 64-9.9z"/><path class="c" d="m218.8 312.2c15-5.9 31.3-8.2 47.4-7.4 23.2 2 45.9 13.3 60.3 31.8 5.3 6.5 9.2 14 12.2 21.9-10.9-6.7-21.4-14.3-33.3-19-20.5-8.7-43.6-12.4-65.7-8.4-19.1 3.2-37.2 10.9-53.7 20.9-4.4 2.5-8.6 5.2-13 7.5 7.5-21.3 24.9-38.6 45.8-47.3z"/></svg>